#!OML:ASF F:\VICON\USERDATA\INSTALL\rory3\rory3.ASF
:FULLY-SPECIFIED
:DEGREES
44
root 0.5426306965383673 17.826531770532494 19.784637652942813 -2.5962012249633957 1.000510472886004 2.9567085138278877
lfemur 8.933375912105461 -1.9257910770221844 -28.45453600299159
ltibia 19.107526456316215
lfoot -16.89460446651896 1.1560386398677291
ltoes -0.8935513190124498
rfemur -27.96558058450281 -0.3023577649293778 18.38785754284147
rtibia 25.115135404609777
rfoot -6.7016664286914684 -17.45381484826995
rtoes -0.31069733870668204
lowerback 9.608551023527852 -1.2838229703766182 -4.167998190026624
upperback 0.033365896269858905 -2.124769654550481 0.7976510700644313
thorax -5.066740531359712 -0.9408110065287083 3.787022438786016
lowerneck -16.35094705728213 -2.8219032233626997 -2.9113565772078567
upperneck 20.384629366393053 -3.5369769605023014 1.8396208355168961
head 9.154672391026438 -1.699349530739285 0.6560278627080731
lclavicle 1.4549671335576772e-16 2.3585130345368283e-16
lhumerus -24.3265711817323 1.0483982564728773 79.50051188378731
lradius 24.875321648737565
lwrist 7.756521879629825
lhand -29.581599424748468 21.075062393271004
lfingers 7.12502
lthumb -2.794456386676312 51.73574634648309
rclavicle 1.482199490182743e-16 2.37959059592471e-16
rhumerus -33.523344622413745 -19.632527490334756 -79.4748637903578
rradius 27.8112062996551
rwrist 1.829081096813769
rhand -17.31440534766158 23.050988716576153
rfingers 7.12502
rthumb 8.840293953877923 -6.876852432288942
45
root 0.4783417585396896 17.740606802960283 20.62632455375162 -2.102501775833261 1.7060596900410663 3.2365371836553063
lfemur 12.902527787466244 -2.0938014605689084 -28.466372445129906
ltibia 16.443788330606505
lfoot -16.810751296676724 -0.21454675147797975
ltoes -3.1382967418608274
rfemur -27.13526487063318 3.311009595010149 16.36627840434693
rtibia 16.796862089498983
rfoot -9.482585293260668 -19.49096280443142
rtoes -3.5145226848003994
lowerback 9.385014781656691 -1.53847165087384 -4.6597793882326926
upperback -0.005103757657019731 -2.484324521568501 0.8858221059388438
thorax -4.950923695717482 -1.1075808041601432 4.168048278204116
lowerneck -16.411727845649846 -2.811058495376849 -3.039823441760622
upperneck 20.312223710122957 -3.5357907980282963 2.0539663781601805
head 9.133841223856486 -1.691286321804007 0.7664506045168221
lclavicle 1.4709771151512953e-16 2.370825945342288e-16
lhumerus -22.51431967853702 -0.5176665031279128 79.36634281814852
lradius 26.690357376415175
lwrist 8.434247514395619
lhand -29.93378890266183 20.1382887411495
lfingers 7.12502
lthumb -3.140143030919046 50.649499220309444
rclavicle 1.4797323831228243e-16 2.3776934486818986e-16
rhumerus -34.416014278849666 -21.239951905836907 -78.38744944498485
rradius 26.42972065279432
rwrist 3.2247051008331713
rhand -17.439703104269316 23.208470955521545
rfingers 7.12502
rthumb 8.73523363126329 -6.6636048606011995
46
root 0.4084819765158414 17.637346856412623 21.76450152670838 -2.1964888840861643 1.666071825548761 3.4825628861507614
lfemur 16.093264884320053 -3.0743814633007456 -28.613209972973394
ltibia 16.79169814620918
lfoot -16.735228909649976 -1.1130012732030916
ltoes -5.860006696798074
rfemur -26.88310997748472 4.824305308039246 16.100267934297456
rtibia 18.376881345799855
rfoot -8.893125991825752 -13.204261994265964
rtoes -5.926631585628691
lowerback 9.502432247491532 -1.537778571137664 -4.9922533917881315
upperback 0.04505817290040255 -2.5165425389373235 0.9969552673442998
thorax -4.974523944881223 -1.1100095367201812 4.349278292376614
lowerneck -16.452040881025212 -2.769395317181387 -3.123029440209599
upperneck 20.265134273218045 -3.469254556463652 2.0438206583980185
head 9.11788987596192 -1.6660722360047662 0.7941036573468747
lclavicle 1.4756931368913982e-16 2.3744516813600316e-16
lhumerus -21.40534436391146 -1.1415511548398696 79.2730657062187
lradius 28.3120223686878
lwrist 8.766906929269382
lhand -30.540469922849276 18.907205261122073
lfingers 7.12502
lthumb -3.7604055710671016 49.21031591416995
rclavicle 1.473166403420992e-16 2.3726455225111266e-16
rhumerus -35.247575945288546 -23.61354047461901 -76.8409785335122
rradius 24.617900741382147
rwrist 5.396384298020677
rhand -17.67547818652167 23.229955701537158
rfingers 7.12502
rthumb 8.509957411596742 -6.682207765429435
47
root 0.32453455154701855 17.678893478379628 23.131051246789394 -2.6050136076726518 1.9716213883890235 2.319890256578148
lfemur 17.196022970627208 -5.397092447035767 -27.583586355744046
ltibia 20.739497843702324
lfoot -13.30836304836281 -2.5684660916143454
ltoes -10.812566827803803
rfemur -26.902126261369602 3.996495849095792 18.2728576789695
rtibia 23.4857899438245
rfoot -4.607488893857908 -9.680561413907078
rtoes -6.241356027968253
lowerback 9.415892576267455 -1.7877960905329973 -4.050652187037294
upperback 0.013294463338383827 -2.749485868266655 1.39265644129556
thorax -4.980114307245022 -1.2461251008884595 4.2263662213361854
lowerneck -16.428623186908865 -2.69918103421294 -3.153148713170128
upperneck 20.469999838240113 -3.3182004300355676 1.7317172856367176
head 9.18080281209956 -1.6139806297580572 0.7064844323853496
lclavicle 1.4812595350510162e-16 2.378732874409254e-16
lhumerus -21.535370490996982 -0.5737761971973097 79.32468540439706
lradius 29.57368195810837
lwrist 8.919949775130782
lhand -31.076030805730603 18.323253520095832
lfingers 7.12502
lthumb -4.362279106990968 48.1877924113955
rclavicle 1.4774104584189698e-16 2.3759100631611374e-16
rhumerus -36.22436816319954 -26.946160369217083 -74.52925352033648
rradius 22.280273271331637
rwrist 8.453873963446387
rhand -17.8564230724648 23.126587239793658
rfingers 7.12502
rthumb 8.364130326521497 -6.841132107094093
48
root 0.24819991781566275 17.753686880291397 24.21794730119147 -3.2495789019071575 1.8561867267493537 0.4222761030944986
lfemur 15.765424906978723 -6.060895813410046 -25.370800348357278
ltibia 28.88995224537079
lfoot -6.112437665332952 -6.4920280033678415
ltoes -17.662249672327178
rfemur -25.90218890125995 3.4091024982275187 21.360161816924162
rtibia 27.870069349099563
rfoot -2.465251463082441 -5.622779943529687
rtoes -0.9404941156287037
lowerback 9.378579675836116 -1.8949670290463296 -2.4434854166684286
upperback -0.05221324638914854 -2.6438817385339415 1.9054743681502337
thorax -5.0956984126799965 -1.2171840877857123 3.8922062383407594
lowerneck -16.301292027704836 -2.626861005088097 -3.130302669883097
upperneck 20.7703273215462 -3.1564060943934584 1.3238339276291649
head 9.245910012187053 -1.5564784515527414 0.5866598542913983
lclavicle 1.4789511724030427e-16 2.376902498173608e-16
lhumerus -22.971129206018993 0.8376370022389468 79.50559527987086
lradius 30.27610562900749
lwrist 9.189839973187205
lhand -30.464875040019123 18.567889843485442
lfingers 7.12502
lthumb -3.8102397170170996 48.470336210893535
rclavicle 1.4693617505771523e-16 2.3697209787367883e-16
rhumerus -37.562452511613316 -30.45231485172916 -71.75067740256213
rradius 20.186327321585566
rwrist 11.578307327259553
rhand -17.809053161247945 22.908400935571034
rfingers 7.12502
rthumb 8.404052671969678 -7.051233378654218
